<svg width="246" height="246" viewBox="0 0 246 246" fill="none" xmlns="http://www.w3.org/2000/svg">
<rect width="246" height="246" rx="20" fill="url(#paint0_linear)"/>
<path d="M131.941 127.492L128.895 140.441C123.224 164.393 118.527 181.236 114.803 190.969C107.609 209.504 98.3835 221.226 87.127 226.135C82.472 228.166 77.7747 229.182 73.0352 229.182C68.2109 229.182 64.8255 228.251 62.8789 226.389C60.9323 224.611 59.959 222.411 59.959 219.787C59.959 217.248 60.8053 215.048 62.498 213.186C64.1908 211.324 66.349 210.393 68.9727 210.393C71.5117 210.393 73.6276 210.985 75.3203 212.17C77.013 213.355 77.8594 214.963 77.8594 216.994C77.8594 219.11 77.2669 221.099 76.082 222.961C84.7995 221.607 92.6283 205.103 99.5684 173.449C100.669 168.456 101.896 162.531 103.25 155.676C104.689 148.736 105.789 143.658 106.551 140.441L109.598 127.492H85.7305L87.7617 119.113H111.375C121.447 78.2344 133.253 49.7122 146.795 33.5469C157.967 20.2591 171.466 13.6152 187.293 13.6152C194.402 13.6152 200.369 15.054 205.193 17.9316C210.102 20.8092 212.557 25.5911 212.557 32.2773C212.557 36.1706 211.202 39.2598 208.494 41.5449C205.87 43.7454 202.739 44.8457 199.1 44.8457C195.545 44.8457 192.498 43.8301 189.959 41.7988C187.505 39.6829 186.277 36.9746 186.277 33.6738C186.277 30.373 187.42 27.1569 189.705 24.0254C185.558 22.5866 182.299 21.8672 179.93 21.8672C177.56 21.8672 174.725 23.0521 171.424 25.4219C168.208 27.707 165.33 30.7962 162.791 34.6895C152.889 49.9238 143.24 78.0651 133.846 119.113H164.188L162.156 127.492H131.941Z" fill="white"/>
<defs>
    <linearGradient id="paint0_linear" x1="123" y1="123" x2="56.5" y2="329.5" gradientUnits="userSpaceOnUse">
        <stop stop-color="#FDB1C6"/>
        <stop offset="1" stop-color="#57F8C7"/>
    </linearGradient>
</defs>
</svg>


