<svg width="30" height="16" viewBox="0 0 30 16" fill="none" xmlns="http://www.w3.org/2000/svg">
    <path fill-rule="evenodd" clip-rule="evenodd" d="M21.3333 0H8C3.58667 0 0 3.58667 0 8C0 12.4133 3.58667 16 8 16H21.3333C25.7467 16 29.3333 12.4133 29.3333 8C29.3333 3.58667 25.7467 0 21.3333 0ZM21.3333 13.3334H7.99997C5.0533 13.3334 2.66663 10.9467 2.66663 8.00007C2.66663 5.0534 5.0533 2.66673 7.99997 2.66673H21.3333C24.28 2.66673 26.6666 5.0534 26.6666 8.00007C26.6666 10.9467 24.28 13.3334 21.3333 13.3334ZM4 8C4 5.78667 5.78667 4 8 4C10.2133 4 12 5.78667 12 8C12 10.2133 10.2133 12 8 12C5.78667 12 4 10.2133 4 8Z" fill="black" fill-opacity="0.78"/>
</svg>
