<svg width="32" height="32" viewBox="0 0 32 32" fill="none" xmlns="http://www.w3.org/2000/svg">
    <path fill-rule="evenodd" clip-rule="evenodd" d="M6.66667 2H25.3333C26.8 2 28 3.2 28 4.66667V23.3333C28 24.8 26.8 26 25.3333 26H20L16 30L12 26H6.66667C5.18667 26 4 24.8 4 23.3333V4.66667C4 3.2 5.18667 2 6.66667 2ZM18.8933 23.3333H25.3333V4.66667H6.66667V23.3333H13.1067L13.88 24.1067L16 26.2267L18.1067 24.12L18.8933 23.3333ZM16 14C18.2 14 20 12.2 20 10C20 7.8 18.2 6 16 6C13.8 6 12 7.8 12 10C12 12.2 13.8 14 16 14ZM17.3333 10C17.3333 9.26667 16.7333 8.66667 16 8.66667C15.2667 8.66667 14.6667 9.26667 14.6667 10C14.6667 10.7333 15.2667 11.3333 16 11.3333C16.7333 11.3333 17.3333 10.7333 17.3333 10ZM24 20.1067C24 16.7733 18.7067 15.3333 16 15.3333C13.2933 15.3333 8 16.7733 8 20.1067V22H24V20.1067ZM16 18C14.28 18 12.2933 18.6533 11.3067 19.3333H20.6933C19.7067 18.6533 17.72 18 16 18Z" fill="black" fill-opacity="0.54"/>
</svg>
