<svg width="32" height="32" viewBox="0 0 32 32" fill="none" xmlns="http://www.w3.org/2000/svg">
    <path fill-rule="evenodd" clip-rule="evenodd" d="M3.33333 2H12.6667C13.4 2 14 2.6 14 3.33333V12.6667C14 13.4 13.4 14 12.6667 14H3.33333C2.6 14 2 13.4 2 12.6667V3.33333C2 2.6 2.6 2 3.33333 2ZM3.33333 12.6667H12.6667V3.33333H3.33333V12.6667Z" fill="black" fill-opacity="0.54"/>
    <path fill-rule="evenodd" clip-rule="evenodd" d="M19.3333 2H28.6667C29.4 2 30 2.6 30 3.33333V12.6667C30 13.4 29.4 14 28.6667 14H19.3333C18.6 14 18 13.4 18 12.6667V3.33333C18 2.6 18.6 2 19.3333 2ZM19.3333 12.6667H28.6667V3.33333H19.3333V12.6667Z" fill="black" fill-opacity="0.54"/>
    <path fill-rule="evenodd" clip-rule="evenodd" d="M3.33333 18H12.6667C13.4 18 14 18.6 14 19.3333V28.6667C14 29.4 13.4 30 12.6667 30H3.33333C2.6 30 2 29.4 2 28.6667V19.3333C2 18.6 2.6 18 3.33333 18ZM3.33333 28.6667H12.6667V19.3333H3.33333V28.6667Z" fill="black" fill-opacity="0.54"/>
    <path fill-rule="evenodd" clip-rule="evenodd" d="M19.3333 18H28.6667C29.4 18 30 18.6 30 19.3333V28.6667C30 29.4 29.4 30 28.6667 30H19.3333C18.6 30 18 29.4 18 28.6667V19.3333C18 18.6 18.6 18 19.3333 18ZM19.3333 28.6667H28.6667V19.3333H19.3333V28.6667Z" fill="black" fill-opacity="0.54"/>
</svg>
